<svg width="48" height="48" viewBox="0 0 48 48" fill="none" xmlns="http://www.w3.org/2000/svg">
<rect width="48" height="48" rx="24" fill="#0166FF"/>
<path d="M36.7076 17.7075L20.7076 33.7075C20.6147 33.8005 20.5044 33.8742 20.383 33.9246C20.2616 33.9749 20.1315 34.0008 20.0001 34.0008C19.8687 34.0008 19.7385 33.9749 19.6171 33.9246C19.4957 33.8742 19.3854 33.8005 19.2926 33.7075L12.2926 26.7075C12.1049 26.5199 11.9995 26.2654 11.9995 26C11.9995 25.7346 12.1049 25.4801 12.2926 25.2925C12.4802 25.1049 12.7347 24.9994 13.0001 24.9994C13.2654 24.9994 13.5199 25.1049 13.7076 25.2925L20.0001 31.5863L35.2926 16.2925C35.4802 16.1049 35.7347 15.9995 36.0001 15.9995C36.2654 15.9995 36.5199 16.1049 36.7076 16.2925C36.8952 16.4801 37.0006 16.7346 37.0006 17C37.0006 17.2654 36.8952 17.5199 36.7076 17.7075Z" fill="white"/>
</svg>
