<svg xmlns="http://www.w3.org/2000/svg" width="49" height="18" viewBox="0 0 49 18" fill="none">
  <path d="M8.16695 8.78886H15.7555V15.2316C14.2205 16.7233 11.8856 17.5016 9.16146 17.5016C3.86461 17.5016 0.535156 14.4533 0.535156 9.54556C0.535156 4.63786 3.86461 1.56785 8.83716 1.56785C11.6045 1.56785 13.7016 2.41102 15.1718 3.77307L13.2476 5.93505C12.2098 5.02702 10.6316 4.44328 8.85878 4.44328C5.76715 4.44328 3.71327 6.41069 3.71327 9.54556C3.71327 12.7885 5.85363 14.6911 9.26956 14.6911C10.6316 14.6911 11.8639 14.4533 12.8801 13.6966V11.4697H8.16695V8.78886Z" fill="black"/>
  <path d="M29.49 11.2968C29.49 11.4913 29.49 11.9454 29.4684 12.1832H20.3016C20.6259 13.9344 21.8366 14.9289 23.7824 14.9289C25.166 14.9289 26.3984 14.41 27.1983 13.4155L29.0792 15.0154C27.9982 16.5071 26.2686 17.4368 23.5662 17.4368C19.6097 17.4368 17.2748 15.0154 17.2748 11.2535C17.2748 7.5133 19.8043 5.07026 23.4148 5.07026C27.4793 5.07026 29.49 7.66463 29.49 11.2968ZM23.4148 7.55654C21.9014 7.55654 20.6907 8.31323 20.3232 10.0212H26.5713C26.3983 8.724 25.4687 7.55654 23.4148 7.55654Z" fill="black"/>
  <path d="M31.4358 17.199V0.811157H34.4193V17.199H31.4358Z" fill="black"/>
  <path d="M42.322 17.4584C38.8628 17.4584 36.6144 15.0586 36.6144 11.2751C36.6144 7.49168 38.8845 5.1135 42.1923 5.1135C43.403 5.1135 44.8515 5.45941 45.8244 6.41069V0.811157H48.7647V17.199H45.8677V16.0531C44.938 17.1773 43.4679 17.4584 42.322 17.4584ZM42.9706 14.7775C44.0948 14.7775 45.2623 14.3235 45.8677 13.2209V9.30774C45.2623 8.33485 44.0516 7.79435 42.9057 7.79435C41.0248 7.79435 39.6844 9.0483 39.6844 11.2751C39.6844 13.4587 40.9816 14.7775 42.9706 14.7775Z" fill="black"/>
</svg>